<svg id="Capa_1" enable-background="new 0 0 512.039 512.039" height="512" viewBox="0 0 512.039 512.039" width="512" xmlns="http://www.w3.org/2000/svg"><path d="m123.058 428.009c-.945.109.925 0 0 0z"/><path d="m123.058 428.009c-.945.109.925 0 0 0z"/><path d="m391.019 428.006c-.925 0 .946.111 0 0z"/><path d="m391.019 428.006c-.925 0 .946.111 0 0z"/><path d="m432.019 512.005c-1.239 0 1.245.076 0 0z"/><path d="m432.019 512.005c-1.239 0 1.245.076 0 0z"/><path d="m209.92 149.093c.076-.005.16-.013.234-.021-.045-.022-.091-.044-.135-.066-.032.028-.066.059-.099.087z"/><path d="m209.92 149.093c.076-.005.16-.013.234-.021-.045-.022-.091-.044-.135-.066-.032.028-.066.059-.099.087z"/><path d="m512.019 165.006c0-11.046-8.954-20-20-20-33.813 0-71.511-4.9-103.914-14.564l-30.785-9.181 10.438-6.592c31.474-19.878 57.955-47.423 76.579-79.657 5.526-9.564 2.252-21.797-7.312-27.323-9.563-5.525-21.796-2.253-27.323 7.312-15.396 26.646-37.286 49.416-63.303 65.848l-10.787 6.813c-2.071-14.814-9.569-27.904-20.417-37.204 5.642-6.593 10.274-14.298 13.764-23.024 4.103-10.255-.886-21.895-11.142-25.997-10.256-4.104-21.896.886-25.997 11.142-5.833 14.583-16.555 22.478-32.801 24.428h-6c-16.247-1.95-26.597-9.844-32.431-24.428-4.103-10.256-15.742-15.245-25.997-11.142-10.256 4.102-15.244 15.742-11.142 25.997 3.491 8.727 8.123 16.432 13.764 23.024-10.742 9.209-18.205 22.132-20.361 36.768l-9.999-6.421c-25.478-16.359-46.951-38.863-62.1-65.082l-.418-.724c-5.526-9.563-17.761-12.835-27.323-7.31-9.563 5.526-12.836 17.76-7.31 27.323l.417.723c18.324 31.715 44.301 58.939 75.121 78.728l9.916 6.367-32.225 9.611c-32.403 9.665-69.1 14.564-102.914 14.564-11.046 0-20 8.954-20 20s8.954 20 20 20c37.687 0 78.231-5.461 114.346-16.232l1.133-.338c-46.411 55.366-102.494 147.756-113.407 278.712-1.421 17.049 4.732 33.951 16.884 46.372 12.482 12.761 29.797 19.455 47.53 18.371 93.172-5.71 148.535-28.726 170.572-39.998 22.173 11.23 81.508 34.397 174.945 40.112 16.414 0 32.452-6.628 44.062-18.503 12.15-12.428 18.298-29.333 16.869-46.382-.923-11.008-10.589-19.183-21.602-18.259-11.007.923-19.182 10.594-18.259 21.601.627 7.483-3.246 12.658-5.61 15.076-4.36 4.46-10.373 6.808-16.505 6.428-84.282-5.154-134.625-25.414-153.955-34.856v-39.099c23.455 10.219 63 23.995 114 29.995 9.813 0 18.34-7.226 19.742-17.222 1.534-10.938-6.089-21.05-17.028-22.584-62.501-8.768-100.83-26.058-116.714-34.579v-144.614c0-11.046-8.954-20-20-20s-20 8.954-20 20v144.697c-15.658 8.485-53.523 25.633-116.714 34.498-10.938 1.534-18.562 11.646-17.028 22.584 1.402 9.997 9.967 17.225 19.781 17.225 51.961-6.003 90.506-19.778 113.961-29.998v39.166c-19.101 9.424-68.922 29.637-152.964 34.787-6.122.376-12.133-1.963-16.49-6.417-2.365-2.418-6.24-7.591-5.616-15.078 13.916-166.978 109.145-267.3 148.069-301.464 7.971 3.967 17.451 7 26.185 7 7.101 0 13.792-1.059 20-3.157 6.208 2.098 12.899 3.157 20 3.157 16.815 0 27.815-7 27.815-7 28.781 24.944 101.285 97.46 133.816 215.321 2.448 8.867 10.495 14.684 19.268 14.684 1.761 0 3.553-.234 5.333-.726 10.647-2.939 16.896-13.953 13.958-24.601-16.151-58.515-42.621-112.847-78.674-161.487-5.974-8.06-11.913-15.541-17.711-22.463 35.083 10.124 75.481 15.271 112.01 15.271 11.046.001 20-8.953 20-19.999zm-235.815-49c-3.975 0-7.333-.777-9.982-2.31-3.099-1.793-6.558-2.69-10.018-2.69s-6.919.896-10.018 2.69c-2.648 1.533-6.007 2.31-9.982 2.31-11.028 0-20-8.972-20-20s8.972-20 20-20c2.829 0 6.187 1.114 9.982 3.31 6.197 3.587 13.839 3.587 20.036 0 3.795-2.196 7.153-3.31 9.982-3.31 11.028 0 20 8.972 20 20s-8.972 20-20 20z"/><path d="m512.019 165.006c0-11.046-8.954-20-20-20-33.813 0-71.511-4.9-103.914-14.564l-30.785-9.181 10.438-6.592c31.474-19.878 57.955-47.423 76.579-79.657 5.526-9.564 2.252-21.797-7.312-27.323-9.563-5.525-21.796-2.253-27.323 7.312-15.396 26.646-37.286 49.416-63.303 65.848l-10.787 6.813c-2.071-14.814-9.569-27.904-20.417-37.204 5.642-6.593 10.274-14.298 13.764-23.024 4.103-10.255-.886-21.895-11.142-25.997-10.256-4.104-21.896.886-25.997 11.142-5.833 14.583-16.555 22.478-32.801 24.428h-6c-16.247-1.95-26.597-9.844-32.431-24.428-4.103-10.256-15.742-15.245-25.997-11.142-10.256 4.102-15.244 15.742-11.142 25.997 3.491 8.727 8.123 16.432 13.764 23.024-10.742 9.209-18.205 22.132-20.361 36.768l-9.999-6.421c-25.478-16.359-46.951-38.863-62.1-65.082l-.418-.724c-5.526-9.563-17.761-12.835-27.323-7.31-9.563 5.526-12.836 17.76-7.31 27.323l.417.723c18.324 31.715 44.301 58.939 75.121 78.728l9.916 6.367-32.225 9.611c-32.403 9.665-69.1 14.564-102.914 14.564-11.046 0-20 8.954-20 20s8.954 20 20 20c37.687 0 78.231-5.461 114.346-16.232l1.133-.338c-46.411 55.366-102.494 147.756-113.407 278.712-1.421 17.049 4.732 33.951 16.884 46.372 12.482 12.761 29.797 19.455 47.53 18.371 93.172-5.71 148.535-28.726 170.572-39.998 22.173 11.23 81.508 34.397 174.945 40.112 16.414 0 32.452-6.628 44.062-18.503 12.15-12.428 18.298-29.333 16.869-46.382-.923-11.008-10.589-19.183-21.602-18.259-11.007.923-19.182 10.594-18.259 21.601.627 7.483-3.246 12.658-5.61 15.076-4.36 4.46-10.373 6.808-16.505 6.428-84.282-5.154-134.625-25.414-153.955-34.856v-39.099c23.455 10.219 63 23.995 114 29.995 9.813 0 18.34-7.226 19.742-17.222 1.534-10.938-6.089-21.05-17.028-22.584-62.501-8.768-100.83-26.058-116.714-34.579v-144.614c0-11.046-8.954-20-20-20s-20 8.954-20 20v144.697c-15.658 8.485-53.523 25.633-116.714 34.498-10.938 1.534-18.562 11.646-17.028 22.584 1.402 9.997 9.967 17.225 19.781 17.225 51.961-6.003 90.506-19.778 113.961-29.998v39.166c-19.101 9.424-68.922 29.637-152.964 34.787-6.122.376-12.133-1.963-16.49-6.417-2.365-2.418-6.24-7.591-5.616-15.078 13.916-166.978 109.145-267.3 148.069-301.464 7.971 3.967 17.451 7 26.185 7 7.101 0 13.792-1.059 20-3.157 6.208 2.098 12.899 3.157 20 3.157 16.815 0 27.815-7 27.815-7 28.781 24.944 101.285 97.46 133.816 215.321 2.448 8.867 10.495 14.684 19.268 14.684 1.761 0 3.553-.234 5.333-.726 10.647-2.939 16.896-13.953 13.958-24.601-16.151-58.515-42.621-112.847-78.674-161.487-5.974-8.06-11.913-15.541-17.711-22.463 35.083 10.124 75.481 15.271 112.01 15.271 11.046.001 20-8.953 20-19.999zm-235.815-49c-3.975 0-7.333-.777-9.982-2.31-3.099-1.793-6.558-2.69-10.018-2.69s-6.919.896-10.018 2.69c-2.648 1.533-6.007 2.31-9.982 2.31-11.028 0-20-8.972-20-20s8.972-20 20-20c2.829 0 6.187 1.114 9.982 3.31 6.197 3.587 13.839 3.587 20.036 0 3.795-2.196 7.153-3.31 9.982-3.31 11.028 0 20 8.972 20 20s-8.972 20-20 20z"/></svg>